<svg id="svg" version="1.1" xmlns="http://www.w3.org/2000/svg" xmlns:xlink="http://www.w3.org/1999/xlink" width="150" height="30" viewBox="0, 0, 400,79.35222672064778"><g id="svgg"><path id="path0" d="M232.917 5.431 C 232.000 5.551,230.987 5.723,230.667 5.813 C 230.346 5.904,229.896 6.026,229.667 6.086 C 228.417 6.411,226.137 7.579,225.037 8.457 C 222.109 10.793,220.667 14.175,220.667 18.708 L 220.667 20.667 218.250 20.667 L 215.833 20.667 215.833 25.750 L 215.833 30.833 218.250 30.833 L 220.667 30.833 220.667 52.083 L 220.667 73.333 227.167 73.333 L 233.667 73.333 233.667 52.083 L 233.667 30.833 238.333 30.833 L 243.000 30.833 243.000 52.083 L 243.000 73.333 249.500 73.333 L 256.000 73.333 256.000 52.083 L 256.000 30.833 258.458 30.832 C 259.810 30.831,261.423 30.783,262.042 30.725 L 263.167 30.618 263.167 25.643 L 263.167 20.667 259.562 20.667 L 255.958 20.667 256.033 19.251 C 256.170 16.626,257.278 15.845,260.875 15.838 L 263.167 15.833 263.167 10.500 L 263.167 5.167 260.220 5.167 C 248.576 5.167,243.000 9.525,243.000 18.625 L 243.000 20.667 238.333 20.667 L 233.667 20.667 233.668 19.708 C 233.670 16.800,234.902 15.833,238.604 15.833 L 240.833 15.833 240.833 10.500 L 240.833 5.167 237.708 5.190 C 235.990 5.203,233.833 5.311,232.917 5.431 M339.917 19.247 C 337.417 19.628,334.402 20.741,333.543 21.600 C 333.414 21.728,333.238 21.833,333.151 21.833 C 332.816 21.833,329.535 25.305,328.827 26.409 L 328.083 27.569 328.038 24.118 L 327.993 20.667 322.163 20.667 L 316.333 20.667 316.333 46.917 L 316.333 73.167 322.667 73.167 L 329.000 73.167 329.000 57.608 C 329.000 49.051,329.066 41.832,329.147 41.567 C 329.228 41.301,329.392 40.746,329.511 40.333 C 329.731 39.570,330.618 37.652,330.821 37.500 C 330.883 37.454,331.114 37.154,331.335 36.833 C 332.131 35.679,334.210 33.960,335.500 33.390 C 337.612 32.458,338.257 32.335,341.042 32.334 L 343.500 32.333 343.500 25.667 L 343.500 19.000 342.375 19.022 C 341.756 19.034,340.650 19.135,339.917 19.247 M361.333 19.179 C 356.653 19.624,350.931 21.305,350.000 22.509 C 349.954 22.568,349.742 22.709,349.528 22.821 C 347.317 23.986,344.779 27.493,344.031 30.417 C 342.055 38.134,344.974 46.254,350.667 48.874 C 351.837 49.413,354.594 50.213,357.375 50.822 C 357.765 50.907,358.421 51.053,358.833 51.146 C 359.537 51.305,360.346 51.420,363.708 51.837 C 372.177 52.889,374.656 54.313,374.664 58.127 C 374.671 61.513,372.081 63.386,366.523 64.014 C 363.657 64.338,358.000 63.215,358.000 62.322 C 358.000 62.249,357.869 62.146,357.708 62.093 C 356.520 61.701,355.109 59.480,354.905 57.680 L 354.790 56.667 348.478 56.667 L 342.167 56.667 342.170 57.542 C 342.179 60.308,343.787 65.411,344.993 66.500 C 345.044 66.546,345.307 66.881,345.579 67.244 C 346.259 68.156,347.575 69.422,348.488 70.043 C 348.907 70.328,349.287 70.604,349.333 70.656 C 349.411 70.743,349.746 70.943,350.583 71.401 C 350.767 71.501,350.954 71.621,351.000 71.667 C 351.046 71.713,351.271 71.834,351.500 71.937 C 351.729 72.040,352.329 72.316,352.833 72.550 C 354.866 73.496,356.653 73.953,360.449 74.495 C 364.478 75.071,371.985 74.464,375.863 73.248 C 377.906 72.607,381.386 70.954,382.000 70.333 C 382.046 70.287,382.397 70.036,382.781 69.776 C 383.457 69.317,384.850 67.920,385.636 66.912 C 386.139 66.266,387.332 63.812,387.524 63.029 C 389.347 55.579,387.302 48.739,382.262 45.432 C 380.964 44.580,379.968 44.102,378.917 43.826 C 378.642 43.753,377.892 43.531,377.250 43.332 C 376.608 43.132,375.783 42.898,375.417 42.810 C 375.050 42.723,374.488 42.589,374.167 42.512 C 372.412 42.094,369.832 41.620,367.750 41.333 C 359.469 40.192,356.667 38.633,356.667 35.167 C 356.667 31.371,360.528 29.130,366.125 29.676 C 370.759 30.129,373.182 32.050,373.841 35.792 L 374.053 37.000 380.277 37.000 L 386.500 37.000 386.500 36.531 C 386.500 35.158,385.933 31.929,385.427 30.417 C 384.474 27.569,381.653 23.971,379.473 22.822 C 379.258 22.709,379.046 22.568,379.000 22.509 C 378.563 21.943,374.293 20.256,372.250 19.841 C 371.700 19.730,371.100 19.605,370.917 19.565 C 368.818 19.104,364.116 18.914,361.333 19.179 M186.750 19.332 C 185.358 19.462,184.613 19.581,182.667 19.988 C 180.373 20.468,177.232 21.728,175.000 23.066 C 173.861 23.748,172.474 24.662,172.333 24.823 C 172.287 24.876,171.950 25.141,171.583 25.413 C 170.364 26.317,168.009 28.704,166.988 30.069 C 166.434 30.810,165.890 31.529,165.778 31.667 C 165.505 32.004,164.303 34.110,163.970 34.833 C 163.212 36.483,162.981 37.053,162.614 38.183 C 162.394 38.862,162.121 39.867,162.009 40.417 C 161.896 40.967,161.718 41.792,161.613 42.250 C 160.874 45.485,161.739 54.535,163.009 56.873 C 163.096 57.032,163.167 57.240,163.167 57.334 C 163.167 57.680,164.836 60.853,165.683 62.117 C 169.300 67.517,174.663 71.534,180.841 73.472 C 182.394 73.959,183.116 74.125,185.417 74.526 C 186.977 74.798,193.218 74.792,194.833 74.517 C 197.162 74.121,200.649 73.182,201.626 72.688 C 201.786 72.607,202.592 72.220,203.417 71.827 C 211.150 68.148,216.939 60.486,218.521 51.833 C 218.832 50.137,218.832 43.674,218.522 42.083 C 217.962 39.211,217.195 36.869,216.093 34.667 C 215.648 33.776,214.773 32.246,214.664 32.167 C 214.601 32.121,214.451 31.897,214.331 31.669 C 213.639 30.357,210.215 26.634,208.575 25.410 C 208.213 25.140,207.879 24.875,207.833 24.821 C 206.853 23.672,200.989 20.817,198.333 20.196 C 197.921 20.099,197.396 19.977,197.167 19.924 C 194.654 19.339,189.701 19.058,186.750 19.332 M284.083 19.264 C 269.377 20.665,258.849 32.236,258.836 47.014 C 258.833 50.970,259.078 52.649,260.124 55.833 C 260.963 58.386,263.071 62.558,263.829 63.167 C 263.886 63.212,264.112 63.512,264.332 63.833 C 264.880 64.635,268.176 67.953,269.134 68.667 C 269.564 68.987,270.018 69.345,270.141 69.462 C 270.264 69.579,270.602 69.796,270.891 69.944 C 271.180 70.092,271.454 70.265,271.500 70.329 C 271.584 70.446,273.075 71.292,274.167 71.842 C 276.475 73.006,278.732 73.765,281.083 74.168 C 281.725 74.278,282.610 74.435,283.050 74.517 C 284.177 74.728,290.360 74.704,291.573 74.484 C 294.422 73.967,296.814 73.312,298.333 72.632 C 299.820 71.966,301.798 70.948,302.242 70.621 C 302.338 70.549,302.792 70.252,303.250 69.960 C 303.708 69.668,304.121 69.385,304.167 69.331 C 304.212 69.278,304.512 69.055,304.833 68.835 C 306.437 67.739,309.644 64.212,310.685 62.398 C 311.719 60.598,313.000 57.876,313.000 57.478 C 313.000 57.398,309.818 57.333,305.928 57.333 L 298.856 57.333 298.482 57.875 C 295.270 62.534,288.289 64.602,282.417 62.634 C 281.242 62.240,279.613 61.483,279.528 61.292 C 279.497 61.223,279.398 61.167,279.308 61.167 C 277.821 61.167,273.524 55.881,272.906 53.292 L 272.797 52.833 293.872 52.833 L 314.947 52.833 315.137 51.708 C 315.586 49.060,315.667 48.301,315.667 46.736 C 315.667 43.767,315.185 40.808,314.216 37.833 C 313.813 36.598,313.720 36.362,313.010 34.774 C 311.632 31.691,307.943 27.233,304.917 24.991 C 304.367 24.584,303.879 24.202,303.833 24.143 C 303.787 24.084,303.150 23.669,302.417 23.221 C 299.291 21.312,296.551 20.277,292.583 19.504 C 291.605 19.313,285.403 19.138,284.083 19.264 M291.000 30.497 C 291.321 30.597,291.846 30.756,292.167 30.851 C 293.342 31.196,294.232 31.619,295.365 32.370 C 298.341 34.344,300.716 37.667,301.502 40.958 L 301.632 41.500 287.316 41.500 C 278.229 41.500,273.000 41.441,273.000 41.339 C 273.000 39.388,275.917 35.020,278.583 32.978 C 278.858 32.767,279.121 32.552,279.167 32.500 C 279.788 31.790,282.765 30.710,285.333 30.261 C 286.082 30.130,290.402 30.310,291.000 30.497 M192.500 30.909 C 195.925 31.412,198.257 32.564,200.590 34.906 C 201.999 36.320,203.667 38.668,203.667 39.237 C 203.667 39.345,203.736 39.505,203.820 39.592 C 205.388 41.209,205.649 50.152,204.225 53.460 C 203.612 54.881,202.926 56.254,202.801 56.306 C 202.727 56.336,202.665 56.449,202.664 56.556 C 202.653 57.256,199.245 60.581,197.719 61.380 C 193.957 63.350,189.032 63.736,184.833 62.391 C 183.957 62.111,181.508 60.910,181.333 60.676 C 181.287 60.614,181.063 60.436,180.833 60.280 C 178.665 58.802,176.212 54.974,175.527 52.000 C 175.432 51.587,175.274 50.898,175.177 50.468 C 174.675 48.249,175.039 43.087,175.856 40.849 C 176.043 40.336,176.240 39.767,176.293 39.583 C 176.347 39.400,176.517 39.025,176.673 38.750 C 177.300 37.638,177.740 36.912,177.836 36.833 C 177.891 36.787,178.044 36.592,178.176 36.399 C 178.800 35.486,180.061 34.258,181.237 33.417 C 181.494 33.233,181.789 33.004,181.893 32.906 C 183.522 31.385,188.873 30.377,192.500 30.909 " stroke="none" fill="#84c4d4" fill-rule="evenodd"></path><path id="path1" d="M33.000 4.950 C 30.577 5.520,27.302 6.781,26.833 7.323 C 26.787 7.376,26.450 7.619,26.083 7.862 C 24.833 8.693,22.667 11.079,22.667 11.626 C 22.667 11.725,22.610 11.831,22.542 11.861 C 21.933 12.132,20.822 15.741,20.486 18.537 L 20.272 20.325 17.929 20.371 L 15.587 20.417 15.463 21.250 C 15.349 22.014,15.250 22.960,14.840 27.250 C 14.762 28.075,14.643 29.144,14.577 29.625 L 14.457 30.500 16.916 30.500 L 19.375 30.500 19.284 30.958 C 19.233 31.210,19.147 31.904,19.092 32.500 C 19.037 33.096,18.922 34.221,18.836 35.000 C 18.751 35.779,18.603 37.185,18.507 38.125 C 18.308 40.087,18.054 42.570,17.825 44.792 C 17.738 45.640,17.595 47.027,17.508 47.875 C 17.226 50.623,16.989 52.886,16.832 54.333 C 16.747 55.112,16.598 56.575,16.500 57.583 C 16.402 58.592,16.253 60.054,16.168 60.833 C 16.083 61.612,15.933 63.038,15.833 64.000 C 15.639 65.878,15.257 69.253,14.995 71.417 C 14.906 72.150,14.833 72.881,14.833 73.042 C 14.833 73.315,15.262 73.333,21.500 73.333 L 28.167 73.333 28.166 72.708 C 28.166 72.365,28.238 71.483,28.327 70.750 C 28.415 70.017,28.568 68.629,28.667 67.667 C 28.767 66.704,28.917 65.279,29.001 64.500 C 29.086 63.721,29.235 62.258,29.333 61.250 C 29.431 60.242,29.581 58.779,29.665 58.000 C 29.822 56.553,30.059 54.289,30.342 51.542 C 30.429 50.694,30.571 49.306,30.658 48.458 C 30.746 47.610,30.897 46.129,30.996 45.167 C 31.094 44.204,31.249 42.704,31.340 41.833 C 31.431 40.962,31.578 39.537,31.667 38.667 C 32.036 35.039,32.182 33.666,32.363 32.125 L 32.554 30.500 36.099 30.500 C 39.329 30.500,39.652 30.474,39.736 30.208 C 39.786 30.048,39.907 29.054,40.005 28.000 C 40.103 26.946,40.256 25.371,40.346 24.500 C 40.436 23.629,40.556 22.288,40.613 21.519 L 40.717 20.121 37.108 20.243 C 32.986 20.383,33.364 20.556,33.691 18.683 C 34.124 16.192,35.221 15.474,38.762 15.367 L 41.291 15.290 41.399 14.270 C 41.458 13.709,41.580 12.537,41.669 11.667 C 41.759 10.796,41.908 9.371,42.001 8.500 C 42.095 7.629,42.218 6.410,42.276 5.792 L 42.382 4.667 38.233 4.681 C 35.132 4.691,33.810 4.759,33.000 4.950 M146.361 9.542 C 146.190 10.902,146.015 12.524,145.656 16.083 C 145.554 17.092,145.396 18.423,145.304 19.042 L 145.137 20.167 142.752 20.167 L 140.367 20.167 140.262 21.375 C 140.053 23.770,139.816 26.107,139.658 27.333 C 139.570 28.021,139.498 28.977,139.499 29.458 L 139.500 30.333 141.856 30.333 L 144.213 30.333 144.112 31.292 C 144.056 31.819,143.937 32.925,143.847 33.750 C 143.757 34.575,143.601 36.037,143.500 37.000 C 143.399 37.962,143.243 39.425,143.153 40.250 C 143.063 41.075,142.917 42.444,142.828 43.292 C 142.739 44.140,142.592 45.546,142.500 46.417 C 142.408 47.288,142.261 48.694,142.172 49.542 C 142.083 50.390,141.930 51.796,141.833 52.667 C 141.124 58.996,141.065 60.235,141.385 62.090 C 142.756 70.040,148.019 73.472,158.583 73.305 L 162.083 73.250 162.191 71.917 C 162.293 70.648,162.454 69.042,162.836 65.500 C 162.930 64.629,163.054 63.373,163.111 62.708 L 163.215 61.500 159.758 61.500 C 156.462 61.500,156.277 61.483,155.776 61.132 C 154.614 60.318,154.257 59.381,154.488 57.751 C 154.578 57.109,154.735 55.758,154.836 54.750 C 154.936 53.742,155.085 52.317,155.165 51.583 C 155.246 50.850,155.395 49.462,155.497 48.500 C 155.598 47.538,155.750 46.112,155.833 45.333 C 155.917 44.554,156.067 43.129,156.167 42.167 C 156.266 41.204,156.416 39.779,156.500 39.000 C 156.584 38.221,156.733 36.796,156.831 35.833 C 156.930 34.871,157.083 33.521,157.173 32.833 C 157.262 32.146,157.335 31.302,157.334 30.958 L 157.333 30.333 161.887 30.333 L 166.441 30.333 166.645 28.458 C 166.758 27.427,166.926 25.796,167.019 24.833 C 167.113 23.871,167.259 22.537,167.345 21.868 C 167.430 21.200,167.500 20.544,167.500 20.410 C 167.500 20.203,166.823 20.167,162.922 20.167 C 159.330 20.167,158.360 20.122,158.419 19.958 C 158.460 19.844,158.573 18.962,158.669 18.000 C 158.765 17.037,158.916 15.556,159.005 14.708 C 159.094 13.860,159.239 12.473,159.328 11.625 C 159.416 10.777,159.539 9.652,159.601 9.125 L 159.713 8.167 153.124 8.167 L 146.534 8.167 146.361 9.542 M61.167 18.852 C 56.811 19.543,55.199 20.019,52.000 21.556 C 51.404 21.842,50.879 22.116,50.833 22.163 C 50.788 22.211,50.563 22.355,50.333 22.484 C 50.104 22.613,49.770 22.801,49.592 22.901 C 49.413 23.001,49.188 23.141,49.092 23.211 C 46.225 25.306,44.839 26.531,43.000 28.598 C 41.004 30.840,39.019 34.015,38.006 36.583 C 37.790 37.133,37.555 37.660,37.485 37.753 C 37.282 38.022,36.569 40.286,36.200 41.833 C 34.232 50.084,35.118 58.284,38.588 63.930 C 39.100 64.763,39.745 65.746,39.837 65.833 C 39.886 65.879,40.186 66.254,40.504 66.667 C 41.218 67.592,43.113 69.485,43.956 70.115 C 44.301 70.373,44.682 70.677,44.804 70.792 C 44.925 70.906,45.088 71.000,45.167 71.000 C 45.245 71.000,45.412 71.103,45.537 71.228 C 47.772 73.462,56.012 75.370,61.121 74.835 C 64.514 74.480,69.318 73.049,69.639 72.297 C 69.669 72.225,69.765 72.167,69.850 72.167 C 70.557 72.167,73.697 69.812,75.901 67.629 C 76.901 66.639,77.739 65.850,77.765 65.876 C 77.790 65.901,77.744 66.483,77.663 67.169 C 77.380 69.558,77.165 71.921,77.166 72.625 L 77.167 73.333 83.719 73.333 L 90.271 73.333 90.478 71.292 C 90.592 70.169,90.753 68.650,90.837 67.917 C 90.978 66.673,91.055 65.933,91.505 61.458 C 91.929 57.256,92.024 56.331,92.168 55.000 C 92.253 54.221,92.402 52.758,92.500 51.750 C 92.598 50.742,92.748 49.279,92.833 48.500 C 92.919 47.721,93.069 46.258,93.168 45.250 C 93.342 43.476,93.490 42.029,93.827 38.792 C 93.916 37.944,94.070 36.387,94.169 35.333 C 94.269 34.279,94.426 32.892,94.518 32.250 C 94.610 31.608,94.758 30.333,94.847 29.417 C 94.935 28.500,95.077 27.075,95.161 26.250 C 95.245 25.425,95.393 23.964,95.490 23.002 C 95.587 22.041,95.712 21.009,95.769 20.709 L 95.871 20.163 89.227 20.206 L 82.583 20.250 82.447 21.750 C 82.373 22.575,82.183 24.251,82.027 25.473 L 81.743 27.697 81.080 26.728 C 80.331 25.635,77.718 22.927,76.833 22.328 C 76.512 22.110,76.212 21.886,76.167 21.829 C 76.121 21.772,75.746 21.543,75.333 21.321 C 74.921 21.099,74.546 20.879,74.500 20.833 C 74.454 20.787,74.229 20.666,74.000 20.564 C 73.771 20.462,73.396 20.293,73.167 20.189 C 72.132 19.719,70.219 19.210,68.097 18.839 C 66.933 18.635,62.477 18.644,61.167 18.852 M114.583 18.856 C 112.496 19.163,111.395 19.354,110.750 19.520 C 100.892 22.070,96.182 27.867,96.170 37.468 C 96.167 39.537,96.225 40.031,96.702 42.000 C 97.681 46.034,100.962 48.716,107.083 50.485 C 107.792 50.690,109.337 50.951,111.083 51.160 C 115.428 51.682,118.686 52.224,121.292 52.860 C 127.424 54.355,126.665 61.299,120.139 63.402 C 112.857 65.750,105.333 62.781,105.333 57.558 L 105.333 56.667 99.018 56.667 C 93.413 56.667,92.691 56.696,92.601 56.930 C 92.450 57.323,92.488 59.918,92.664 61.250 C 93.465 67.307,98.185 72.068,105.193 73.887 C 108.120 74.647,109.166 74.750,113.917 74.748 C 118.768 74.745,119.821 74.633,124.000 73.676 C 131.110 72.048,137.264 66.586,138.468 60.833 C 138.574 60.329,138.774 59.377,138.914 58.717 C 140.134 52.935,137.541 46.684,132.997 44.453 C 131.714 43.823,127.870 42.500,127.323 42.500 C 127.154 42.500,126.843 42.433,126.633 42.352 C 126.270 42.212,125.505 42.035,123.708 41.675 C 121.378 41.208,119.780 40.955,117.333 40.666 C 111.067 39.926,108.536 37.403,110.023 33.381 C 111.019 30.691,113.833 29.312,118.333 29.311 C 123.848 29.310,126.988 31.714,126.998 35.944 L 127.000 36.805 133.208 36.713 C 136.623 36.663,139.454 36.588,139.500 36.547 C 139.546 36.505,139.580 35.371,139.576 34.027 C 139.566 30.819,139.336 29.822,137.983 27.129 C 136.600 24.375,134.007 22.037,130.833 20.681 C 128.907 19.858,128.934 19.867,126.625 19.338 C 123.863 18.704,117.382 18.445,114.583 18.856 M68.590 30.910 C 77.163 32.427,81.562 40.282,79.187 49.833 C 76.705 59.811,64.989 65.669,56.250 61.302 C 54.747 60.551,52.167 58.371,52.167 57.853 C 52.167 57.750,52.110 57.667,52.042 57.666 C 51.679 57.666,49.806 54.002,49.528 52.750 C 49.426 52.292,49.266 51.565,49.171 51.135 C 48.728 49.110,49.146 45.232,50.085 42.667 C 50.458 41.648,51.799 39.011,52.094 38.715 C 52.226 38.584,52.333 38.412,52.333 38.333 C 52.333 38.255,52.427 38.090,52.542 37.966 C 52.656 37.843,53.160 37.256,53.662 36.663 C 54.722 35.408,55.434 34.743,56.915 33.623 C 59.984 31.302,64.663 30.215,68.590 30.910 " stroke="none" fill="#14445c" fill-rule="evenodd"></path></g></svg>