<svg id="svg" version="1.1" xmlns="http://www.w3.org/2000/svg" xmlns:xlink="http://www.w3.org/1999/xlink" width="200" height="39" viewBox="0, 0, 200,39"><g id="svgg"><path id="path0" d="M246.917 1.842 C 244.779 2.083,241.565 3.151,241.361 3.687 C 241.331 3.768,241.229 3.833,241.135 3.833 C 240.949 3.833,239.910 4.612,239.027 5.412 C 238.367 6.010,237.000 7.737,237.000 7.973 C 237.000 8.064,236.937 8.164,236.861 8.194 C 236.650 8.278,235.591 10.616,235.250 11.750 C 235.025 12.495,234.928 13.525,234.869 15.792 L 234.789 18.833 231.311 18.833 L 227.833 18.833 227.833 22.333 L 227.833 25.833 231.333 25.833 L 234.833 25.833 234.833 51.417 L 234.833 77.000 238.333 77.000 L 241.833 77.000 241.833 51.417 L 241.833 25.833 248.417 25.833 L 255.000 25.833 255.000 51.417 L 255.000 77.000 258.500 77.000 L 262.000 77.000 262.000 51.417 L 262.000 25.833 267.703 25.833 L 273.406 25.833 272.471 26.792 C 271.957 27.319,271.338 27.970,271.096 28.238 C 270.486 28.916,268.667 31.475,268.667 31.657 C 268.667 31.739,268.603 31.831,268.526 31.861 C 268.373 31.921,268.246 32.149,267.268 34.113 C 266.337 35.983,265.866 37.145,265.522 38.417 C 264.388 42.614,264.265 43.542,264.273 47.833 C 264.283 53.377,265.072 57.026,267.228 61.500 C 267.515 62.096,267.844 62.682,267.958 62.804 C 268.073 62.925,268.167 63.088,268.167 63.167 C 268.167 63.432,270.502 66.798,271.245 67.603 C 271.339 67.705,271.942 68.371,272.583 69.081 C 273.225 69.792,274.313 70.824,275.000 71.375 C 275.688 71.926,276.275 72.442,276.306 72.522 C 276.336 72.602,276.461 72.667,276.583 72.667 C 276.706 72.667,276.831 72.724,276.861 72.794 C 276.937 72.966,278.465 74.025,279.083 74.334 C 279.358 74.471,279.621 74.628,279.667 74.682 C 279.863 74.917,282.482 76.175,283.917 76.724 C 284.575 76.977,284.872 77.067,286.667 77.564 C 291.574 78.922,298.057 78.919,302.833 77.556 C 304.602 77.051,306.592 76.350,307.458 75.927 C 307.938 75.692,308.366 75.500,308.407 75.500 C 308.855 75.500,313.409 72.482,314.807 71.259 C 315.750 70.433,318.000 68.129,318.000 67.988 C 318.000 67.903,318.071 67.833,318.159 67.833 C 318.246 67.833,318.546 67.501,318.825 67.096 C 319.104 66.690,319.426 66.256,319.541 66.130 C 319.779 65.871,319.890 65.699,320.865 64.083 C 321.655 62.774,322.833 60.510,322.833 60.303 C 322.833 60.228,321.049 60.167,318.868 60.167 L 314.902 60.167 313.909 61.539 C 313.005 62.790,310.186 65.791,309.166 66.590 C 308.937 66.770,308.438 67.160,308.059 67.458 C 307.679 67.756,307.325 68.000,307.271 68.000 C 307.217 68.000,306.778 68.253,306.295 68.561 C 301.496 71.628,294.675 72.531,288.500 70.917 C 287.904 70.762,287.345 70.567,287.258 70.484 C 287.171 70.401,286.977 70.333,286.826 70.333 C 286.213 70.333,281.208 67.572,281.028 67.135 C 280.997 67.061,280.908 67.000,280.830 67.000 C 280.565 67.000,278.509 65.088,277.333 63.748 C 275.350 61.486,273.296 57.994,272.679 55.833 C 272.562 55.421,272.395 54.904,272.309 54.684 C 272.223 54.465,272.044 53.790,271.913 53.184 C 271.781 52.579,271.625 51.915,271.567 51.708 L 271.461 51.333 298.369 51.333 L 325.276 51.333 325.488 49.243 C 325.610 48.033,325.650 46.648,325.582 45.952 C 325.375 43.823,325.038 41.417,324.840 40.657 C 324.487 39.299,324.133 38.088,323.967 37.667 C 323.876 37.438,323.689 36.912,323.551 36.500 C 321.322 29.839,313.841 22.244,306.634 19.326 C 304.097 18.298,303.413 18.110,299.705 17.422 C 295.589 16.659,288.508 17.291,284.417 18.787 C 283.438 19.145,281.628 19.918,281.167 20.176 C 281.029 20.253,280.485 20.547,279.957 20.829 C 278.273 21.729,276.578 22.944,274.661 24.625 C 274.321 24.923,273.996 25.167,273.938 25.167 C 273.880 25.167,273.833 23.742,273.833 22.000 L 273.833 18.833 267.917 18.833 L 262.000 18.833 262.001 16.708 C 262.003 10.868,264.520 8.667,271.194 8.667 L 273.833 8.667 273.833 5.167 L 273.833 1.667 271.027 1.667 C 267.424 1.667,263.980 2.120,263.434 2.666 C 263.342 2.758,263.150 2.833,263.008 2.833 C 262.123 2.833,258.634 5.702,257.438 7.412 C 255.619 10.015,255.162 11.585,255.048 15.625 L 254.957 18.833 248.395 18.833 L 241.833 18.833 241.839 16.875 C 241.858 10.569,244.219 8.716,252.292 8.674 L 253.667 8.667 253.667 5.167 L 253.667 1.667 250.875 1.689 C 249.340 1.701,247.558 1.770,246.917 1.842 M196.667 17.433 C 192.166 18.179,188.932 19.290,185.750 21.182 C 185.292 21.455,184.748 21.762,184.542 21.866 C 184.335 21.969,184.167 22.116,184.167 22.193 C 184.167 22.270,184.084 22.333,183.982 22.333 C 183.826 22.333,182.589 23.211,182.333 23.503 C 182.287 23.556,181.800 23.944,181.250 24.365 C 179.072 26.034,175.008 30.737,174.219 32.500 C 174.158 32.637,173.936 33.025,173.727 33.362 C 172.525 35.292,171.252 39.069,170.646 42.500 C 168.917 52.294,172.010 62.250,178.965 69.280 C 180.772 71.107,180.931 71.245,182.971 72.759 C 183.766 73.349,184.492 73.893,184.583 73.966 C 184.675 74.040,184.862 74.150,185.000 74.211 C 185.137 74.273,185.625 74.545,186.083 74.817 C 187.553 75.688,189.878 76.722,191.333 77.152 C 193.864 77.899,195.528 78.241,197.865 78.493 C 201.569 78.892,206.795 78.469,209.891 77.520 C 210.226 77.417,210.781 77.254,211.125 77.156 C 219.630 74.750,228.393 65.813,230.888 57.000 C 232.425 51.571,232.618 45.319,231.393 40.583 C 230.928 38.783,230.453 37.253,230.308 37.092 C 230.230 37.005,230.167 36.812,230.167 36.663 C 230.167 35.973,226.970 30.253,226.459 30.028 C 226.390 29.997,226.333 29.904,226.333 29.821 C 226.333 29.662,226.079 29.344,224.833 27.943 C 223.419 26.352,222.916 25.869,220.404 23.681 C 219.866 23.213,217.740 21.780,216.250 20.882 C 214.420 19.778,210.413 18.264,208.250 17.859 C 204.317 17.122,199.590 16.948,196.667 17.433 M346.454 17.602 C 345.650 17.818,344.773 18.109,344.504 18.248 C 344.236 18.387,343.944 18.500,343.855 18.500 C 343.621 18.500,341.221 19.932,340.250 20.652 C 339.792 20.992,339.117 21.484,338.750 21.745 C 337.621 22.550,334.957 25.359,334.167 26.578 L 333.417 27.735 333.372 23.201 L 333.328 18.667 329.831 18.667 L 326.333 18.667 326.333 47.833 L 326.333 77.000 329.829 77.000 L 333.324 77.000 333.384 58.125 C 333.447 38.237,333.424 38.871,334.168 36.573 C 334.762 34.738,336.319 31.979,337.285 31.050 C 337.495 30.848,337.667 30.604,337.667 30.508 C 337.667 30.412,337.723 30.331,337.792 30.329 C 337.860 30.326,338.329 29.943,338.833 29.478 C 339.895 28.497,341.970 27.000,342.268 27.000 C 342.380 27.000,342.497 26.940,342.528 26.868 C 342.586 26.730,343.817 26.173,345.250 25.635 C 346.213 25.274,349.162 24.668,349.958 24.667 L 350.500 24.667 350.500 20.917 L 350.500 17.167 349.208 17.187 C 348.436 17.200,347.328 17.366,346.454 17.602 M365.167 17.434 C 362.636 17.893,360.067 18.568,359.758 18.854 C 359.671 18.934,359.501 19.000,359.380 19.000 C 358.811 19.000,355.426 20.887,354.187 21.895 C 350.229 25.113,348.745 29.542,349.572 35.667 C 350.483 42.410,354.104 46.220,361.500 48.217 C 363.401 48.731,367.926 49.516,372.250 50.082 C 373.350 50.226,374.775 50.455,375.417 50.591 C 376.058 50.726,376.727 50.837,376.902 50.835 C 377.469 50.832,380.965 51.885,382.000 52.371 C 388.351 55.354,388.906 64.368,383.000 68.601 C 375.633 73.881,359.403 72.021,356.459 65.560 C 356.361 65.344,356.227 65.167,356.162 65.167 C 355.717 65.167,354.501 61.293,354.500 59.875 L 354.500 59.333 350.917 59.333 L 347.333 59.333 347.333 60.148 C 347.333 61.431,347.950 64.612,348.452 65.917 C 349.841 69.525,353.071 73.248,356.417 75.094 C 359.309 76.690,360.723 77.192,364.917 78.113 C 366.891 78.547,375.059 78.544,377.333 78.109 C 381.444 77.322,384.394 76.309,386.417 74.989 C 386.692 74.810,387.048 74.617,387.208 74.562 C 387.369 74.506,387.500 74.395,387.500 74.314 C 387.500 74.233,387.574 74.167,387.665 74.167 C 387.993 74.167,390.284 72.014,391.333 70.720 C 394.681 66.590,395.351 58.280,392.776 52.850 C 391.818 50.831,388.947 47.500,388.165 47.500 C 388.074 47.500,388.000 47.441,388.000 47.368 C 388.000 47.090,385.403 45.948,384.167 45.682 C 383.846 45.613,383.321 45.473,383.000 45.372 C 381.620 44.937,378.834 44.320,376.417 43.915 C 375.500 43.761,374.285 43.530,373.716 43.401 C 373.147 43.272,372.439 43.167,372.142 43.167 C 371.846 43.167,371.186 43.095,370.677 43.008 C 370.167 42.921,369.000 42.728,368.083 42.579 C 366.173 42.270,364.659 41.906,363.869 41.568 C 363.568 41.439,363.248 41.333,363.158 41.333 C 362.920 41.333,360.761 40.274,360.694 40.125 C 360.664 40.056,360.543 40.000,360.426 40.000 C 360.069 40.000,358.567 38.471,357.970 37.500 C 356.142 34.530,356.238 30.476,358.190 28.107 C 362.804 22.510,377.964 22.477,382.665 28.053 C 382.895 28.326,383.209 28.683,383.363 28.846 C 384.122 29.651,385.150 32.287,385.163 33.458 L 385.167 33.833 388.774 33.833 L 392.381 33.833 392.272 32.794 C 391.815 28.416,390.404 25.486,387.403 22.679 C 385.727 21.111,382.381 19.000,381.572 19.000 C 381.452 19.000,381.310 18.931,381.258 18.847 C 381.083 18.563,378.849 17.955,376.038 17.426 C 374.247 17.089,367.036 17.094,365.167 17.434 M297.333 24.073 C 299.649 24.327,301.774 24.836,303.250 25.488 C 304.842 26.192,307.302 27.458,307.500 27.675 C 307.546 27.725,307.846 27.946,308.167 28.167 C 308.487 28.387,308.787 28.611,308.833 28.664 C 308.879 28.717,309.487 29.228,310.185 29.800 C 311.564 30.930,314.304 34.069,314.724 35.000 C 314.786 35.137,314.984 35.475,315.163 35.750 C 316.289 37.479,317.698 41.289,318.066 43.598 L 318.148 44.113 311.130 44.223 C 302.338 44.361,271.500 44.369,271.500 44.232 C 271.500 43.738,272.804 39.218,273.142 38.544 C 273.222 38.382,273.541 37.725,273.850 37.083 C 274.833 35.044,276.573 32.588,278.092 31.100 C 279.889 29.340,281.492 28.000,281.802 28.000 C 281.896 28.000,281.997 27.944,282.028 27.875 C 282.166 27.564,284.774 26.160,286.583 25.422 C 289.732 24.139,293.561 23.658,297.333 24.073 M206.040 24.415 C 208.001 24.915,208.917 25.193,209.389 25.430 C 209.648 25.560,209.931 25.667,210.017 25.667 C 210.185 25.667,212.361 26.687,212.500 26.831 C 212.546 26.878,212.846 27.061,213.167 27.238 C 216.831 29.255,221.659 34.772,223.097 38.583 C 225.110 43.921,225.486 48.500,224.309 53.333 C 224.208 53.746,224.066 54.346,223.993 54.667 C 223.457 57.014,220.498 62.667,219.805 62.667 C 219.729 62.667,219.667 62.739,219.667 62.828 C 219.667 62.916,219.460 63.204,219.208 63.467 C 218.956 63.731,218.480 64.240,218.150 64.598 C 216.447 66.446,214.054 68.201,211.642 69.370 C 209.096 70.604,208.548 70.833,208.150 70.833 C 207.964 70.833,207.669 70.910,207.495 71.003 C 206.203 71.694,199.602 71.962,196.833 71.434 C 193.859 70.868,191.708 70.061,189.372 68.637 C 188.798 68.287,188.254 68.000,188.164 68.000 C 188.074 68.000,188.000 67.941,188.000 67.869 C 188.000 67.797,187.769 67.602,187.486 67.435 C 186.301 66.735,183.076 63.536,182.006 62.000 C 181.782 61.679,181.553 61.379,181.496 61.333 C 181.439 61.288,181.341 61.137,181.278 61.000 C 181.215 60.862,181.018 60.525,180.841 60.250 C 180.664 59.975,180.244 59.188,179.907 58.500 C 179.569 57.813,179.226 57.118,179.144 56.956 C 177.450 53.628,176.977 44.872,178.308 41.483 C 178.395 41.263,178.555 40.746,178.664 40.333 C 178.773 39.921,178.960 39.358,179.078 39.083 C 179.487 38.135,180.417 36.250,180.517 36.167 C 180.572 36.121,180.713 35.896,180.831 35.667 C 181.582 34.202,186.253 29.000,186.816 29.000 C 186.917 29.000,187.000 28.940,187.000 28.867 C 187.000 28.740,189.560 27.000,189.748 27.000 C 189.799 27.000,190.120 26.828,190.462 26.618 C 190.804 26.408,191.421 26.099,191.833 25.931 C 192.246 25.762,192.808 25.528,193.083 25.411 C 193.545 25.213,194.213 25.012,196.167 24.483 C 198.123 23.953,204.069 23.912,206.040 24.415 " stroke="none" fill="#84c4d4" fill-rule="evenodd"></path><path id="path1" d="M19.667 1.334 C 18.612 1.501,17.525 1.710,17.250 1.799 C 16.975 1.888,16.412 2.058,16.000 2.176 C 12.437 3.198,8.798 6.537,7.563 9.917 C 6.858 11.845,6.659 12.972,6.555 15.625 L 6.449 18.333 3.808 18.333 L 1.167 18.333 1.167 24.000 L 1.167 29.667 3.833 29.667 L 6.500 29.667 6.500 53.333 L 6.500 77.000 13.833 77.000 L 21.167 77.000 21.167 53.333 L 21.167 29.667 25.167 29.667 L 29.167 29.667 29.167 24.000 L 29.167 18.333 25.167 18.333 L 21.167 18.333 21.167 16.914 C 21.167 15.406,21.269 15.102,22.083 14.190 C 22.979 13.187,23.687 13.000,26.597 13.000 L 29.167 13.000 29.167 7.000 L 29.167 1.000 25.375 1.016 C 22.589 1.027,21.075 1.111,19.667 1.334 M149.333 11.583 L 149.333 18.167 146.667 18.167 L 144.000 18.167 144.000 23.833 L 144.000 29.500 146.667 29.500 L 149.333 29.500 149.337 44.625 C 149.341 64.763,149.515 66.166,152.500 70.167 C 154.358 72.656,158.955 76.000,160.521 76.000 C 160.641 76.000,161.041 76.106,161.411 76.235 C 162.968 76.779,164.564 76.917,169.333 76.917 L 174.083 76.917 174.127 70.458 L 174.171 64.000 170.439 64.000 C 166.377 64.000,165.979 63.930,165.095 63.054 C 163.941 61.912,164.008 62.995,164.004 45.375 L 164.000 29.500 169.083 29.500 L 174.167 29.500 174.166 26.708 C 174.166 25.173,174.117 22.623,174.057 21.042 L 173.948 18.167 168.974 18.167 L 164.000 18.167 164.000 11.583 L 164.000 5.000 156.667 5.000 L 149.333 5.000 149.333 11.583 M115.750 16.665 C 112.159 16.837,108.160 17.686,105.583 18.823 C 104.692 19.216,103.701 19.720,103.250 20.009 C 102.975 20.185,102.638 20.381,102.500 20.444 C 100.777 21.231,97.775 24.596,96.801 26.833 C 95.532 29.748,95.425 30.366,95.433 34.750 C 95.441 39.278,95.992 41.910,97.399 44.138 C 97.638 44.517,97.833 44.874,97.833 44.931 C 97.833 45.124,98.899 46.410,99.844 47.357 C 100.780 48.295,102.331 49.414,103.167 49.756 C 103.304 49.812,103.546 49.927,103.704 50.011 C 105.188 50.802,112.015 52.436,115.833 52.915 C 122.798 53.787,124.874 54.238,127.417 55.430 C 130.468 56.859,131.249 60.841,129.021 63.609 C 125.907 67.479,115.588 68.020,111.029 64.552 C 110.268 63.973,109.333 63.023,109.333 62.828 C 109.333 62.739,109.272 62.667,109.196 62.667 C 108.940 62.667,108.324 61.197,108.049 59.930 L 107.775 58.667 100.788 58.667 L 93.801 58.667 93.916 60.458 C 94.261 65.877,96.779 70.500,101.182 73.801 C 101.694 74.186,102.176 74.500,102.252 74.500 C 102.328 74.500,102.510 74.608,102.655 74.740 C 102.962 75.018,105.476 76.307,106.333 76.627 C 112.891 79.071,122.249 79.443,129.750 77.558 C 130.300 77.420,131.050 77.231,131.417 77.137 C 131.783 77.044,132.330 76.863,132.631 76.734 C 132.932 76.605,133.254 76.500,133.348 76.500 C 133.616 76.500,137.077 74.806,137.139 74.645 C 137.169 74.565,137.267 74.500,137.355 74.500 C 138.019 74.500,141.024 71.938,142.234 70.339 C 145.509 66.016,146.355 57.400,143.986 52.500 C 143.075 50.616,142.712 49.931,142.502 49.697 C 142.363 49.542,142.040 49.135,141.783 48.791 C 140.874 47.575,138.861 45.857,138.039 45.596 C 137.834 45.531,137.667 45.408,137.667 45.322 C 137.667 45.237,137.533 45.167,137.370 45.167 C 137.207 45.167,136.926 45.065,136.745 44.941 C 136.565 44.817,136.229 44.674,136.000 44.623 C 135.771 44.572,135.058 44.349,134.417 44.127 C 132.963 43.625,131.665 43.244,130.583 43.001 C 130.125 42.898,129.487 42.747,129.167 42.665 C 128.227 42.425,125.230 41.877,123.250 41.582 C 122.242 41.432,120.967 41.232,120.417 41.138 C 119.867 41.043,119.079 40.911,118.667 40.844 C 117.405 40.638,113.929 39.624,113.000 39.189 C 109.741 37.666,109.064 33.444,111.640 30.708 C 112.007 30.319,112.388 30.000,112.487 30.000 C 112.586 30.000,112.667 29.943,112.667 29.873 C 112.667 29.715,113.948 29.125,115.167 28.723 C 116.505 28.281,121.668 28.285,123.000 28.729 C 124.187 29.125,126.160 30.047,126.164 30.208 C 126.165 30.277,126.245 30.333,126.341 30.333 C 127.405 30.333,129.333 33.992,129.333 36.010 L 129.333 36.500 136.333 36.500 L 143.333 36.500 143.333 35.360 C 143.333 33.470,142.799 30.585,142.124 28.833 C 141.659 27.626,140.503 25.466,140.163 25.167 C 140.111 25.121,139.713 24.618,139.280 24.049 C 138.531 23.066,136.214 21.000,135.860 21.000 C 135.769 21.000,135.669 20.942,135.639 20.872 C 135.508 20.569,133.389 19.354,132.000 18.786 C 131.679 18.654,131.192 18.453,130.917 18.339 C 130.316 18.089,127.453 17.321,126.750 17.222 C 126.475 17.183,125.650 17.047,124.917 16.920 C 123.280 16.637,118.883 16.514,115.750 16.665 M51.750 16.998 C 49.378 17.412,46.256 18.277,45.214 18.808 C 45.051 18.892,44.542 19.133,44.083 19.344 C 43.625 19.554,42.780 20.013,42.205 20.363 C 41.631 20.714,41.093 21.000,41.011 21.000 C 40.929 21.000,40.836 21.061,40.806 21.135 C 40.775 21.209,40.375 21.523,39.917 21.833 C 38.597 22.725,36.146 25.051,34.806 26.681 C 34.056 27.594,32.667 29.474,32.667 29.575 C 32.667 29.616,32.460 29.972,32.208 30.367 C 31.482 31.503,31.377 31.689,30.837 32.799 C 29.683 35.171,28.597 38.881,28.094 42.167 C 27.726 44.570,27.729 50.938,28.099 53.157 C 28.628 56.333,29.769 60.479,30.465 61.756 C 30.563 61.936,30.817 62.444,31.030 62.885 C 31.620 64.107,31.874 64.575,31.996 64.667 C 32.058 64.712,32.161 64.862,32.227 65.000 C 32.433 65.431,33.327 66.839,33.497 67.000 C 33.546 67.046,33.919 67.533,34.328 68.083 C 35.935 70.247,39.264 73.206,41.879 74.795 C 43.341 75.684,46.134 77.000,46.557 77.000 C 46.698 77.000,46.860 77.075,46.917 77.167 C 46.973 77.258,47.181 77.333,47.379 77.333 C 47.577 77.333,48.041 77.437,48.411 77.564 C 52.351 78.918,59.186 79.142,63.417 78.055 C 65.196 77.598,67.570 76.642,68.833 75.873 C 69.337 75.567,69.900 75.226,70.083 75.116 C 70.267 75.006,70.454 74.878,70.500 74.832 C 70.546 74.785,70.921 74.528,71.333 74.260 C 72.295 73.636,75.800 70.143,76.433 69.179 L 76.917 68.441 76.961 72.720 L 77.006 77.000 84.336 77.000 L 91.667 77.000 91.667 47.556 L 91.667 18.113 86.792 18.223 C 84.110 18.283,80.773 18.333,79.375 18.333 L 76.833 18.333 76.820 22.542 C 76.813 24.856,76.764 26.637,76.712 26.500 C 76.660 26.363,76.572 26.212,76.517 26.167 C 76.462 26.121,76.118 25.708,75.753 25.250 C 74.895 24.173,73.470 22.747,72.417 21.911 C 71.958 21.548,71.558 21.194,71.528 21.125 C 71.497 21.056,71.374 21.000,71.254 21.000 C 71.134 21.000,70.998 20.906,70.953 20.792 C 70.907 20.677,70.580 20.434,70.227 20.250 C 69.873 20.067,69.498 19.838,69.395 19.740 C 68.841 19.221,66.055 18.039,64.000 17.452 C 60.957 16.583,55.327 16.374,51.750 16.998 M63.250 30.247 C 63.983 30.379,64.996 30.647,65.500 30.841 C 66.004 31.035,66.567 31.244,66.751 31.305 C 67.128 31.431,68.941 32.461,69.329 32.770 C 69.469 32.881,69.996 33.301,70.500 33.704 C 71.580 34.566,73.609 36.876,74.082 37.781 C 74.264 38.131,74.461 38.454,74.519 38.500 C 74.661 38.612,75.590 40.616,75.920 41.522 C 77.190 45.011,77.243 50.171,76.042 53.417 C 75.148 55.834,75.129 55.873,73.862 57.833 C 71.940 60.805,69.029 63.150,65.583 64.499 C 63.111 65.468,57.749 65.651,55.417 64.846 C 53.430 64.160,52.997 63.990,52.489 63.689 C 52.174 63.503,51.589 63.179,51.188 62.969 C 50.787 62.759,50.423 62.493,50.378 62.377 C 50.334 62.261,50.193 62.167,50.066 62.167 C 49.938 62.167,49.833 62.092,49.833 62.000 C 49.833 61.908,49.727 61.833,49.597 61.833 C 49.467 61.833,49.336 61.762,49.306 61.676 C 49.275 61.589,48.682 60.933,47.988 60.218 C 42.705 54.773,41.498 46.488,44.948 39.353 C 45.286 38.655,45.604 38.046,45.656 38.000 C 45.802 37.871,46.500 36.856,46.500 36.773 C 46.500 36.645,47.545 35.471,48.500 34.526 C 52.232 30.831,57.700 29.245,63.250 30.247 " stroke="none" fill="#14445c" fill-rule="evenodd"></path></g></svg>