<svg id="svg" version="1.1" xmlns="http://www.w3.org/2000/svg" xmlns:xlink="http://www.w3.org/1999/xlink" width="200" height="38" viewBox="0, 0, 400,74.64562326465001"><g id="svgg"><path id="path0" d="M238.167 1.605 C 235.825 1.826,233.515 2.210,232.583 2.531 C 231.454 2.920,229.913 3.585,229.861 3.705 C 229.831 3.776,229.740 3.833,229.661 3.833 C 228.965 3.833,226.233 6.353,225.295 7.859 C 224.759 8.719,224.615 9.005,224.168 10.083 C 223.579 11.505,223.167 14.055,223.167 16.277 L 223.167 17.833 220.750 17.833 L 218.333 17.833 218.333 23.083 L 218.333 28.333 220.750 28.333 L 223.167 28.333 223.167 50.500 L 223.167 72.667 230.000 72.667 L 236.833 72.667 236.833 50.500 L 236.833 28.333 241.750 28.333 L 246.667 28.333 246.667 50.500 L 246.667 72.667 253.500 72.667 L 260.333 72.667 260.333 50.500 L 260.333 28.333 264.000 28.333 L 267.667 28.333 267.667 23.083 L 267.667 17.833 264.000 17.833 L 260.333 17.833 260.333 16.449 C 260.333 13.609,261.381 12.833,265.219 12.833 L 267.667 12.833 267.667 7.144 L 267.667 1.454 263.958 1.552 C 254.924 1.791,250.418 3.936,247.963 9.167 C 246.927 11.373,246.667 12.670,246.667 15.625 L 246.667 17.833 241.750 17.833 L 236.833 17.833 236.833 16.687 C 236.833 13.752,238.015 12.835,241.794 12.834 L 244.338 12.833 244.294 7.208 L 244.250 1.583 241.500 1.566 C 239.987 1.557,238.487 1.574,238.167 1.605 M370.333 16.258 C 367.028 16.554,364.953 16.952,362.750 17.711 C 355.466 20.222,351.833 25.297,351.833 32.964 C 351.833 42.053,355.787 47.055,364.333 48.778 C 364.563 48.824,365.087 48.958,365.500 49.076 C 367.239 49.572,368.557 49.785,375.417 50.680 C 377.522 50.955,380.904 51.849,381.288 52.232 C 381.343 52.288,381.520 52.333,381.681 52.333 C 381.841 52.333,381.997 52.390,382.028 52.458 C 382.058 52.527,382.401 52.790,382.789 53.042 C 384.427 54.108,385.025 57.372,383.926 59.251 C 383.433 60.094,382.453 61.167,382.176 61.167 C 382.092 61.167,381.925 61.263,381.804 61.381 C 381.197 61.973,379.361 62.559,377.000 62.917 C 371.613 63.731,367.234 62.382,364.731 59.137 C 364.237 58.495,363.669 56.800,363.668 55.958 L 363.667 55.500 357.058 55.500 L 350.450 55.500 350.560 57.308 C 350.620 58.302,350.783 59.521,350.921 60.016 C 351.451 61.910,351.562 62.255,351.696 62.408 C 351.771 62.495,351.833 62.657,351.833 62.768 C 351.833 63.029,353.169 65.399,353.357 65.472 C 353.436 65.503,353.500 65.596,353.500 65.679 C 353.500 66.478,357.734 70.167,359.702 71.083 C 360.133 71.284,360.583 71.522,360.702 71.613 C 360.820 71.703,361.179 71.873,361.500 71.989 C 361.821 72.105,362.233 72.260,362.417 72.333 C 368.307 74.669,379.702 74.826,385.833 72.656 C 387.869 71.936,388.385 71.727,389.583 71.142 C 392.107 69.910,396.000 66.800,396.000 66.016 C 396.000 65.929,396.097 65.758,396.216 65.637 C 397.994 63.828,399.125 56.700,398.243 52.868 C 397.722 50.608,396.433 47.435,395.859 47.000 C 395.798 46.954,395.529 46.617,395.260 46.250 C 394.538 45.263,393.003 43.833,392.665 43.833 C 392.574 43.833,392.500 43.767,392.500 43.687 C 392.500 43.606,392.256 43.444,391.958 43.326 C 391.660 43.208,391.304 43.018,391.167 42.903 C 390.940 42.714,388.479 41.831,387.250 41.497 C 384.292 40.695,383.318 40.442,382.750 40.332 C 381.856 40.157,379.295 39.726,377.250 39.406 C 373.320 38.790,372.396 38.601,370.750 38.074 C 370.108 37.868,369.392 37.658,369.159 37.605 C 367.409 37.215,366.085 35.627,365.596 33.333 C 365.255 31.731,366.697 29.201,368.482 28.270 C 368.813 28.097,369.233 27.878,369.417 27.783 C 370.565 27.186,375.456 26.949,377.333 27.398 C 380.941 28.262,383.371 30.762,383.628 33.875 L 383.707 34.833 390.270 34.833 L 396.833 34.833 396.833 34.375 C 396.830 31.643,395.911 27.887,394.736 25.809 C 394.423 25.255,394.167 24.760,394.167 24.709 C 394.167 23.826,388.170 18.667,387.142 18.667 C 387.009 18.667,386.829 18.603,386.742 18.526 C 386.416 18.237,384.364 17.492,382.833 17.107 C 378.810 16.095,375.025 15.838,370.333 16.258 M188.250 16.337 C 186.009 16.499,184.887 16.684,182.833 17.230 C 180.493 17.852,180.431 17.871,180.250 18.004 C 180.158 18.071,179.896 18.182,179.667 18.251 C 179.438 18.320,178.950 18.509,178.583 18.670 C 178.217 18.832,177.804 19.009,177.667 19.063 C 177.372 19.180,175.536 20.211,174.389 20.903 C 169.849 23.643,164.162 30.548,162.846 34.917 C 162.763 35.192,162.498 36.054,162.257 36.833 C 160.690 41.896,160.824 49.356,162.577 54.699 C 165.048 62.229,171.235 68.779,178.917 71.996 C 180.436 72.632,182.254 73.219,183.500 73.474 C 184.004 73.578,185.017 73.793,185.750 73.951 C 187.664 74.366,194.816 74.364,196.750 73.949 C 197.483 73.791,198.496 73.579,199.000 73.477 C 207.455 71.763,216.473 64.125,219.339 56.250 C 219.406 56.067,219.581 55.617,219.728 55.250 C 220.038 54.481,220.357 53.274,220.874 50.917 C 221.374 48.636,221.418 41.818,220.946 39.833 C 220.782 39.146,220.568 38.246,220.470 37.833 C 219.975 35.748,218.213 31.376,217.795 31.194 C 217.724 31.164,217.667 31.067,217.667 30.979 C 217.667 30.892,217.527 30.617,217.357 30.368 C 217.186 30.120,216.680 29.359,216.232 28.678 C 215.303 27.267,211.578 23.414,210.083 22.318 C 209.533 21.915,209.046 21.546,209.000 21.498 C 208.844 21.336,206.087 19.705,205.250 19.280 C 203.656 18.470,201.623 17.709,200.083 17.344 C 199.625 17.236,198.838 17.044,198.333 16.918 C 196.021 16.339,191.672 16.089,188.250 16.337 M289.333 16.336 C 287.073 16.567,284.448 17.120,282.917 17.688 C 281.207 18.322,279.335 19.116,278.833 19.421 C 278.512 19.615,278.100 19.830,277.917 19.898 C 277.623 20.007,275.385 21.447,275.167 21.668 C 275.121 21.714,274.783 21.975,274.417 22.248 C 273.253 23.114,273.138 23.218,271.465 24.898 C 264.497 31.899,261.627 41.816,263.744 51.583 C 264.299 54.147,264.855 55.770,266.055 58.333 C 266.451 59.179,267.819 61.428,268.154 61.785 C 268.344 61.987,268.500 62.198,268.500 62.254 C 268.500 62.478,269.677 63.812,271.350 65.484 C 273.173 67.307,273.296 67.417,274.417 68.252 C 274.783 68.525,275.121 68.788,275.167 68.838 C 275.257 68.935,276.860 69.964,277.410 70.277 C 280.662 72.130,283.297 73.058,287.723 73.910 C 289.745 74.299,295.850 74.312,297.855 73.932 C 301.295 73.280,302.650 72.901,304.750 72.007 C 305.984 71.482,308.946 69.917,309.167 69.674 C 309.212 69.624,309.662 69.309,310.167 68.974 C 311.869 67.844,314.863 65.042,315.928 63.583 C 316.196 63.217,316.460 62.879,316.516 62.833 C 316.717 62.668,317.641 61.123,318.660 59.250 C 318.946 58.724,320.000 56.237,320.000 56.087 C 320.000 56.039,316.681 56.000,312.624 56.000 L 305.248 56.000 304.749 56.625 C 304.186 57.330,302.795 58.746,302.167 59.253 C 301.627 59.689,299.992 60.716,299.500 60.928 C 299.362 60.987,299.006 61.144,298.707 61.276 C 295.859 62.538,291.126 62.817,288.664 61.869 C 288.436 61.781,287.950 61.615,287.583 61.501 C 284.605 60.569,281.123 57.861,279.391 55.129 C 278.965 54.457,277.833 51.916,277.833 51.631 C 277.833 51.559,286.634 51.500,297.390 51.500 C 308.146 51.500,318.083 51.451,319.471 51.391 L 321.995 51.282 322.091 50.682 C 322.144 50.353,322.274 49.708,322.381 49.250 C 322.649 48.102,322.630 41.749,322.355 40.250 C 322.148 39.128,321.770 37.539,321.501 36.667 C 321.430 36.438,321.275 35.912,321.157 35.500 C 321.039 35.087,320.849 34.563,320.735 34.333 C 320.430 33.716,319.833 32.348,319.833 32.264 C 319.833 31.900,317.020 27.727,316.007 26.587 C 314.976 25.429,313.278 23.771,312.417 23.083 C 311.958 22.716,311.546 22.373,311.500 22.320 C 311.072 21.821,307.578 19.617,306.333 19.060 C 306.012 18.916,305.441 18.659,305.064 18.489 C 300.961 16.634,294.740 15.783,289.333 16.336 M347.500 16.346 C 343.278 16.969,339.172 19.741,336.438 23.813 L 335.500 25.209 335.500 21.438 L 335.500 17.667 329.417 17.667 L 323.333 17.667 323.333 45.167 L 323.333 72.667 330.000 72.667 L 336.667 72.667 336.673 56.375 C 336.679 38.077,336.610 39.155,337.949 36.501 C 339.090 34.238,340.782 32.553,343.333 31.137 C 343.746 30.908,344.271 30.676,344.500 30.622 C 344.729 30.567,345.554 30.369,346.333 30.182 C 347.353 29.937,348.322 29.841,349.792 29.838 L 351.833 29.833 351.833 23.000 L 351.833 16.167 350.125 16.189 C 349.185 16.201,348.004 16.271,347.500 16.346 M295.667 27.916 C 300.825 28.803,304.439 31.420,306.716 35.917 C 307.251 36.974,308.000 39.059,308.000 39.493 C 308.000 39.612,303.282 39.667,293.000 39.667 C 284.750 39.667,278.000 39.613,278.000 39.546 C 278.000 38.707,279.686 34.949,280.526 33.917 C 281.805 32.346,284.647 29.833,285.146 29.833 C 285.234 29.833,285.331 29.775,285.361 29.704 C 285.462 29.471,288.065 28.391,289.000 28.195 C 291.736 27.622,293.522 27.547,295.667 27.916 M194.333 28.561 C 197.588 29.135,200.007 30.388,202.309 32.691 C 203.382 33.763,203.689 34.119,204.110 34.781 C 204.274 35.039,204.448 35.287,204.496 35.333 C 204.942 35.759,205.963 38.063,206.344 39.500 C 207.656 44.457,206.908 52.299,204.912 54.505 C 204.777 54.654,204.664 54.845,204.661 54.930 C 204.641 55.497,202.258 58.176,200.845 59.220 C 199.860 59.947,197.492 61.220,196.826 61.379 C 196.601 61.433,195.779 61.631,195.000 61.818 C 193.175 62.256,189.544 62.297,187.774 61.899 C 186.183 61.542,184.478 60.985,184.154 60.717 C 184.009 60.598,183.807 60.500,183.706 60.500 C 183.032 60.500,179.710 57.634,178.484 55.995 C 175.321 51.768,174.421 44.602,176.331 38.855 C 176.775 37.517,177.840 35.266,178.154 35.000 C 178.208 34.954,178.467 34.628,178.730 34.275 C 182.145 29.696,188.202 27.478,194.333 28.561 " stroke="none" fill="#84c4d4" fill-rule="evenodd"></path><path id="path1" d="M19.833 1.112 C 11.442 1.708,6.352 7.213,6.336 15.708 L 6.333 17.333 3.833 17.333 L 1.333 17.333 1.333 22.667 L 1.333 28.000 3.833 28.000 L 6.333 28.000 6.333 50.417 L 6.333 72.833 13.250 72.833 L 20.167 72.833 20.167 50.417 L 20.167 28.000 24.000 28.000 L 27.833 28.000 27.833 22.667 L 27.833 17.333 24.000 17.333 L 20.167 17.333 20.168 16.292 C 20.170 13.219,21.322 12.333,25.317 12.333 L 27.833 12.333 27.833 6.667 L 27.833 1.000 24.208 1.029 C 22.215 1.045,20.246 1.082,19.833 1.112 M141.333 10.917 L 141.333 17.167 138.833 17.167 L 136.333 17.167 136.333 22.583 L 136.333 28.000 138.833 28.000 L 141.333 28.000 141.333 42.138 C 141.333 56.348,141.418 58.982,141.940 60.917 C 142.388 62.574,142.861 63.901,143.104 64.180 C 143.230 64.325,143.333 64.526,143.333 64.628 C 143.333 65.524,146.338 68.748,148.417 70.082 C 151.665 72.167,153.226 72.518,159.708 72.621 L 164.833 72.702 164.833 66.601 L 164.833 60.500 161.354 60.500 C 157.640 60.500,157.124 60.411,156.285 59.627 C 155.281 58.689,155.333 59.602,155.333 43.092 L 155.333 28.000 160.083 28.000 L 164.833 28.000 164.833 25.208 C 164.832 23.673,164.783 21.235,164.723 19.792 L 164.614 17.167 159.891 17.167 L 155.167 17.167 155.167 10.917 L 155.167 4.667 148.250 4.667 L 141.333 4.667 141.333 10.917 M111.000 15.599 C 107.420 15.887,105.244 16.203,103.417 16.700 C 102.775 16.874,102.025 17.077,101.750 17.151 C 100.155 17.576,96.363 19.583,95.472 20.473 C 95.320 20.625,94.803 21.125,94.325 21.583 C 89.638 26.075,88.869 36.386,92.764 42.519 C 94.840 45.788,97.197 47.225,102.833 48.658 C 106.363 49.556,106.383 49.560,111.583 50.247 C 116.359 50.878,118.259 51.306,120.333 52.216 C 124.600 54.089,124.353 59.627,119.904 61.840 C 116.776 63.395,110.765 63.636,107.583 62.333 C 107.400 62.258,107.138 62.152,107.000 62.097 C 105.182 61.373,102.500 58.575,102.500 57.403 C 102.500 57.282,102.419 56.804,102.320 56.342 L 102.139 55.500 95.486 55.500 L 88.833 55.500 88.834 56.042 C 88.835 57.065,89.527 60.742,89.971 62.083 C 90.378 63.310,92.369 66.667,92.690 66.667 C 92.769 66.667,92.833 66.745,92.833 66.841 C 92.833 66.992,93.781 67.965,95.032 69.099 C 95.244 69.290,95.867 69.740,96.417 70.098 C 96.967 70.456,97.454 70.787,97.500 70.833 C 97.600 70.934,100.111 72.157,100.583 72.334 C 100.767 72.404,101.217 72.574,101.583 72.712 C 101.950 72.851,102.550 73.041,102.917 73.135 C 103.283 73.229,103.883 73.382,104.250 73.475 C 108.443 74.543,115.494 74.738,119.833 73.907 C 123.675 73.171,124.146 73.047,126.667 72.108 C 131.979 70.130,135.672 66.377,137.021 61.583 C 137.470 59.990,137.593 54.087,137.208 52.625 C 137.094 52.190,136.914 51.477,136.808 51.042 C 136.702 50.606,136.524 50.063,136.412 49.833 C 136.299 49.604,136.107 49.192,135.985 48.917 C 135.630 48.120,134.421 46.269,133.940 45.789 C 133.698 45.547,133.500 45.270,133.500 45.174 C 133.500 45.078,133.441 45.000,133.368 45.000 C 133.296 45.000,132.905 44.700,132.500 44.334 C 132.095 43.967,131.629 43.624,131.465 43.572 C 131.301 43.520,131.167 43.416,131.167 43.340 C 131.167 43.265,130.979 43.156,130.750 43.098 C 130.521 43.041,130.333 42.920,130.333 42.830 C 130.333 42.740,130.196 42.667,130.028 42.667 C 129.860 42.667,129.671 42.616,129.609 42.554 C 129.382 42.327,125.645 41.106,124.500 40.885 C 124.271 40.841,123.746 40.703,123.333 40.578 C 122.085 40.201,119.588 39.743,114.708 38.993 C 112.398 38.639,111.385 38.447,110.750 38.246 C 110.383 38.130,109.746 37.941,109.333 37.826 C 106.072 36.922,104.853 35.915,104.399 33.753 C 103.810 30.942,105.526 28.216,108.417 27.369 C 110.017 26.900,110.544 26.835,112.750 26.837 C 118.633 26.841,122.482 29.653,122.498 33.958 L 122.500 34.500 129.167 34.500 C 135.405 34.500,135.833 34.481,135.832 34.208 C 135.828 33.508,135.317 29.642,135.183 29.297 C 135.101 29.088,134.938 28.579,134.820 28.167 C 134.584 27.343,133.394 24.650,133.203 24.506 C 133.137 24.457,132.970 24.199,132.833 23.933 C 132.236 22.777,128.022 19.000,127.328 19.000 C 127.255 19.000,127.169 18.944,127.139 18.875 C 127.090 18.764,125.654 18.034,124.750 17.660 C 123.657 17.207,121.550 16.590,119.948 16.254 C 118.062 15.857,112.680 15.463,111.000 15.599 M50.667 15.854 C 46.272 16.440,42.741 17.578,40.038 19.280 C 39.555 19.584,39.093 19.833,39.011 19.833 C 38.928 19.833,38.836 19.891,38.806 19.961 C 38.775 20.032,38.337 20.387,37.833 20.751 C 35.428 22.488,32.256 25.868,31.099 27.927 C 30.948 28.197,30.679 28.658,30.501 28.954 C 29.638 30.390,28.564 32.750,28.092 34.250 C 27.867 34.964,27.676 35.660,27.272 37.250 C 26.179 41.554,26.288 48.939,27.517 53.750 C 28.174 56.318,28.192 56.378,28.443 56.745 C 28.566 56.926,28.667 57.171,28.667 57.289 C 28.667 57.477,29.123 58.614,29.487 59.333 C 30.004 60.353,30.741 61.593,30.858 61.639 C 30.936 61.669,31.000 61.772,31.000 61.868 C 31.000 62.047,32.258 63.870,32.990 64.750 C 34.703 66.813,37.949 69.620,40.010 70.821 C 40.551 71.136,42.663 72.176,43.083 72.333 C 43.267 72.402,43.642 72.550,43.917 72.662 C 44.722 72.989,45.685 73.285,46.667 73.506 C 47.171 73.620,47.846 73.782,48.167 73.867 C 51.837 74.838,60.723 74.376,62.075 73.144 C 62.162 73.065,62.397 73.000,62.596 73.000 C 62.796 73.000,63.053 72.887,63.167 72.750 C 63.281 72.612,63.476 72.500,63.601 72.500 C 63.894 72.500,65.942 71.415,66.272 71.086 C 66.410 70.947,66.580 70.833,66.649 70.833 C 66.765 70.833,68.017 69.892,68.979 69.083 C 69.641 68.526,70.879 67.261,71.583 66.421 C 71.950 65.984,72.419 65.437,72.625 65.205 L 73.000 64.785 73.000 68.809 L 73.000 72.833 79.917 72.833 L 86.833 72.833 86.833 44.973 L 86.833 17.113 82.208 17.223 C 79.665 17.283,76.515 17.333,75.208 17.333 L 72.833 17.333 72.828 21.208 L 72.822 25.083 72.496 24.667 C 71.093 22.874,69.597 21.376,68.083 20.247 C 67.717 19.974,67.324 19.662,67.210 19.555 C 64.341 16.851,56.440 15.083,50.667 15.854 M59.740 28.521 C 64.261 29.362,68.452 32.345,70.600 36.250 C 72.314 39.368,72.869 41.540,72.867 45.121 C 72.866 47.680,72.568 49.452,71.836 51.250 C 71.761 51.433,71.603 51.846,71.484 52.167 C 71.366 52.487,71.143 52.938,70.990 53.167 C 70.836 53.396,70.477 53.958,70.190 54.417 C 67.878 58.117,64.556 60.483,60.333 61.435 C 59.063 61.722,54.706 61.779,53.728 61.522 C 53.373 61.429,52.708 61.262,52.250 61.151 C 51.792 61.040,51.229 60.857,51.000 60.745 C 50.771 60.633,50.358 60.441,50.083 60.318 C 47.819 59.311,43.510 55.311,43.502 54.208 C 43.501 54.094,43.438 54.000,43.363 54.000 C 43.174 54.000,42.150 51.897,41.819 50.831 C 40.124 45.363,40.796 39.677,43.617 35.627 C 43.919 35.192,44.167 34.806,44.167 34.768 C 44.167 34.406,46.812 31.831,47.963 31.072 C 48.487 30.726,49.104 30.320,49.333 30.169 C 50.062 29.690,52.194 28.909,53.667 28.581 C 54.856 28.316,58.446 28.281,59.740 28.521 " stroke="none" fill="#14445c" fill-rule="evenodd"></path></g></svg>